<svg xmlns="http://www.w3.org/2000/svg" viewBox="0 0 100 100" fill="none" stroke="white" stroke-width="2.5" stroke-linecap="round" stroke-linejoin="round">
  <!-- Outer Circle -->
  <circle cx="50" cy="50" r="48" />
  
  <!-- Tree Trunk/Stem -->
  <path d="M50 85 C 50 85, 45 70, 50 50 C 55 30, 50 15, 50 15" />
  
  <!-- Roots/Ground -->
  <path d="M30 80 Q 50 70 70 80" />
  <path d="M50 85 V 95" />
  <path d="M40 92 L 50 85" />
  <path d="M60 92 L 50 85" />

  <!-- Branches Left -->
  <path d="M50 50 Q 30 40 20 45" />
  <path d="M50 60 Q 30 60 25 70" />
  <path d="M50 35 Q 35 25 30 15" />

  <!-- Branches Right -->
  <path d="M50 50 Q 70 40 80 45" />
  <path d="M50 60 Q 70 60 75 70" />
  <path d="M50 35 Q 65 25 70 15" />

  <!-- Leaves (Simple almond shapes) -->
  <!-- Left side leaves -->
  <path d="M20 45 Q 15 40 20 35 Q 25 40 20 45" />
  <path d="M25 70 Q 20 65 25 60 Q 30 65 25 70" />
  <path d="M30 15 Q 25 10 30 5 Q 35 10 30 15" />
  <path d="M35 35 Q 30 30 35 25 Q 40 30 35 35" /> <!-- Inner branch leaf -->

  <!-- Right side leaves -->
  <path d="M80 45 Q 85 40 80 35 Q 75 40 80 45" />
  <path d="M75 70 Q 80 65 75 60 Q 70 65 75 70" />
  <path d="M70 15 Q 75 10 70 5 Q 65 10 70 15" />
  <path d="M65 35 Q 70 30 65 25 Q 60 30 65 35" /> <!-- Inner branch leaf -->

  <!-- Top Center Leaf -->
  <path d="M50 15 Q 45 5 50 2 Q 55 5 50 15" />

  <!-- Small Dots/Berries -->
  <circle cx="35" cy="50" r="1.5" fill="white" stroke="none"/>
  <circle cx="65" cy="50" r="1.5" fill="white" stroke="none"/>
  <circle cx="50" cy="30" r="1.5" fill="white" stroke="none"/>
  <circle cx="20" cy="25" r="1.5" fill="white" stroke="none"/>
  <circle cx="80" cy="25" r="1.5" fill="white" stroke="none"/>
</svg>
