<svg version="1.1" xmlns="http://www.w3.org/2000/svg" style="display: block;" viewBox="0 0 1024 1024" width="256" height="256" preserveAspectRatio="none">
<defs>
	<linearGradient id="Gradient1" gradientUnits="userSpaceOnUse" x1="475.831" y1="193.24" x2="492.591" y2="161.842">
		<stop class="stop0" offset="0" stop-opacity="1" stop-color="rgb(42,122,33)"/>
		<stop class="stop1" offset="1" stop-opacity="1" stop-color="rgb(83,176,59)"/>
	</linearGradient>
	<linearGradient id="Gradient2" gradientUnits="userSpaceOnUse" x1="369.539" y1="307.604" x2="405.844" y2="274.943">
		<stop class="stop0" offset="0" stop-opacity="1" stop-color="rgb(52,127,38)"/>
		<stop class="stop1" offset="1" stop-opacity="1" stop-color="rgb(83,187,67)"/>
	</linearGradient>
	<linearGradient id="Gradient3" gradientUnits="userSpaceOnUse" x1="459.624" y1="428.11" x2="465.114" y2="400.287">
		<stop class="stop0" offset="0" stop-opacity="1" stop-color="rgb(51,144,41)"/>
		<stop class="stop1" offset="1" stop-opacity="1" stop-color="rgb(77,180,65)"/>
	</linearGradient>
	<linearGradient id="Gradient4" gradientUnits="userSpaceOnUse" x1="710.103" y1="147.343" x2="757.273" y2="133.229">
		<stop class="stop0" offset="0" stop-opacity="1" stop-color="rgb(59,143,50)"/>
		<stop class="stop1" offset="1" stop-opacity="1" stop-color="rgb(73,178,68)"/>
	</linearGradient>
	<linearGradient id="Gradient5" gradientUnits="userSpaceOnUse" x1="603.44" y1="493.795" x2="618.055" y2="467.307">
		<stop class="stop0" offset="0" stop-opacity="1" stop-color="rgb(46,136,44)"/>
		<stop class="stop1" offset="1" stop-opacity="1" stop-color="rgb(77,196,74)"/>
	</linearGradient>
	<linearGradient id="Gradient6" gradientUnits="userSpaceOnUse" x1="198.309" y1="323.494" x2="232.627" y2="297.276">
		<stop class="stop0" offset="0" stop-opacity="1" stop-color="rgb(160,150,134)"/>
		<stop class="stop1" offset="1" stop-opacity="1" stop-color="rgb(189,178,148)"/>
	</linearGradient>
	<linearGradient id="Gradient7" gradientUnits="userSpaceOnUse" x1="322.72" y1="895.27" x2="189.61" y2="692.573">
		<stop class="stop0" offset="0" stop-opacity="1" stop-color="rgb(0,0,0)"/>
		<stop class="stop1" offset="1" stop-opacity="1" stop-color="rgb(35,35,37)"/>
	</linearGradient>
	<linearGradient id="Gradient8" gradientUnits="userSpaceOnUse" x1="261.714" y1="520.861" x2="295.802" y2="512.286">
		<stop class="stop0" offset="0" stop-opacity="1" stop-color="rgb(203,181,145)"/>
		<stop class="stop1" offset="1" stop-opacity="1" stop-color="rgb(216,211,165)"/>
	</linearGradient>
	<linearGradient id="Gradient9" gradientUnits="userSpaceOnUse" x1="413.765" y1="362.534" x2="412.82" y2="340.881">
		<stop class="stop0" offset="0" stop-opacity="1" stop-color="rgb(68,168,56)"/>
		<stop class="stop1" offset="1" stop-opacity="1" stop-color="rgb(95,203,77)"/>
	</linearGradient>
	<linearGradient id="Gradient10" gradientUnits="userSpaceOnUse" x1="824.611" y1="452.791" x2="839.299" y2="441.096">
		<stop class="stop0" offset="0" stop-opacity="1" stop-color="rgb(156,159,141)"/>
		<stop class="stop1" offset="1" stop-opacity="1" stop-color="rgb(187,186,164)"/>
	</linearGradient>
	<linearGradient id="Gradient11" gradientUnits="userSpaceOnUse" x1="829.527" y1="439.703" x2="840.782" y2="414.196">
		<stop class="stop0" offset="0" stop-opacity="1" stop-color="rgb(198,182,161)"/>
		<stop class="stop1" offset="1" stop-opacity="1" stop-color="rgb(235,219,192)"/>
	</linearGradient>
	<linearGradient id="Gradient12" gradientUnits="userSpaceOnUse" x1="753.959" y1="517.755" x2="800.818" y2="509.85">
		<stop class="stop0" offset="0" stop-opacity="1" stop-color="rgb(72,167,69)"/>
		<stop class="stop1" offset="1" stop-opacity="1" stop-color="rgb(94,210,90)"/>
	</linearGradient>
</defs>

<path transform="translate(0,0)" fill="rgb(255,255,255)" d="M 768.052 460.455 C 768.44 463.05 758.211 470.519 755.475 473.444 C 720.47 510.854 660.422 547.684 640.49 595.961 C 627.818 632.948 638.634 672.861 641.583 709.324 C 644.364 743.718 640.043 743.745 654.594 775.27 C 672.535 774.245 688.016 773.857 705.957 775.665 C 727.062 777.296 749.024 782.12 770.161 782.78 C 836.24 784.846 901.821 786.887 967.952 787.154 L 967.817 804.919 C 939.681 802.188 912.117 800.032 883.912 798.215 C 863.115 796.873 840.744 792.151 820.093 791.312 C 786.895 789.965 756.045 790.384 723.094 784.345 C 704.077 780.86 678.865 782.554 659.72 785.468 C 680.159 811.123 678.662 828.46 691.901 853.831 C 705.284 879.479 752.318 905.599 775.91 922.482 C 786.626 930.15 796.601 939.477 807.524 947.543 C 820.952 956.907 830.085 965.978 842.14 974.706 C 828.774 975.968 807.003 975.413 792.98 975.42 L 707.995 975.409 L 598.865 975.324 C 576.504 975.303 553.613 975.922 531.389 974.519 C 544.726 971.511 560.075 968.095 572.935 963.54 C 595.701 955.476 616.419 942.807 641.129 941.279 C 654.983 940.422 666.977 943.15 679.403 944.49 C 690.167 945.65 745.09 958.545 751.297 955.497 C 749.815 946.714 721.506 929.181 714.034 922.244 C 710.661 919.114 697.227 906.264 694.108 904.472 C 664.349 887.368 647.948 872.317 638.766 838.05 C 637.097 831.896 629.504 820.647 627.29 813.206 C 624.454 803.676 622.528 793.181 620.294 783.387 C 607.887 736.684 597.811 689.613 594.315 641.308 C 590.888 593.973 606.415 566.987 637.32 531.701 C 663.237 502.11 728.526 462.628 768.052 460.455 z"/>
<path transform="translate(0,0)" fill="rgb(255,255,255)" d="M 329.674 357.91 C 339.991 357.943 349.236 365.86 358.09 370.489 C 364.496 374.116 371.669 376.779 377.837 380.769 C 397.175 393.281 407.66 412.875 421.184 430.479 C 431.675 443.424 446.068 454.512 454.875 468.717 C 463.182 482.115 465.4 499.972 471.867 514.433 C 477.429 526.871 486.582 536.387 493.183 548.034 C 500.827 562.067 505.597 577.534 510.173 592.79 C 515.865 611.766 521.871 629.725 522.27 649.699 C 515.77 647.245 511.902 644.793 506.076 641.112 C 505.651 673.012 509.017 708.865 510.614 741.003 C 514.169 812.525 539.467 895.59 451.261 924.515 C 455.899 916.431 479.075 893.948 476.965 885.048 L 475.576 884.478 C 464.838 889.689 450.132 911.873 436.002 920.182 C 413.11 933.642 355.993 952.362 340.278 969.017 C 367.163 969.735 391.249 964.605 417.646 962.345 C 443.484 960.133 470.228 958.767 496.165 957.225 C 503.649 957.104 535.89 955.761 540.206 958.288 L 539.598 959.752 C 530.503 965.474 498.854 973.956 488.217 974.517 C 464.03 975.794 435.48 975.528 411.099 975.121 C 370.214 974.438 323.724 977.041 283.267 974.844 C 294.819 949.04 321.36 940.233 345.472 929.11 C 355.012 925.629 366.841 915.31 375.603 911.866 C 448.398 883.258 483.541 862.543 483.012 775.865 C 478.939 773.307 476.606 771.113 473.068 767.95 C 469.131 749.076 470.622 743.398 471.988 724.047 C 472.923 710.786 474.256 688.739 474.209 675.365 C 474.169 663.792 462.703 642.817 460.529 630.007 C 458.359 617.223 462.085 608.796 460.229 596.435 C 456.998 584.057 451.147 569.716 446.809 557.261 C 440.619 539.489 435.839 519.654 427.92 502.792 C 423.424 493.218 414.117 482.858 409.525 472.726 C 402.445 457.106 399.069 442.87 388.793 428.898 C 372.886 407.27 351.265 397.598 335.007 377.39 C 335.651 362.947 332.294 367.843 329.674 357.91 z"/>
<path transform="translate(0,0)" fill="rgb(255,255,255)" d="M 522.895 149.982 C 535.208 148.968 539.448 154.361 544.767 164.6 C 544.375 168.851 544.024 173.107 543.714 177.365 C 566.967 200.029 556.052 201.835 554.748 231.413 C 554.025 247.807 555.909 266.538 554.691 283.058 C 552.392 312.837 549.188 343.172 548.413 373.021 C 548.121 384.265 540.936 448.685 546.394 453.476 L 548.449 452.933 C 553.695 446.393 551.658 434.55 553.886 427.056 C 559.38 408.572 565.456 391.142 568.806 372.017 C 569.746 366.653 575.194 350.172 578.039 345.86 C 601.676 310.032 631.794 277.767 666.598 252.564 C 672.259 248.464 687.691 242.524 692.649 250.415 C 695.986 255.726 691.894 267.859 690.312 273.745 C 677.327 283.047 667.689 293.079 656.132 303.872 C 650.029 309.572 638.077 317.207 633.075 323.114 C 606.975 353.937 597.939 398.036 581.644 432.459 C 577.661 443.753 570.759 459.176 567.476 469.166 C 564.099 479.441 568.984 483.683 561.976 499.519 C 558.964 501.756 550.101 506.237 546.381 508.217 C 545.043 514.531 541.755 540.123 542.464 545.638 C 547.708 586.396 561.184 626.537 562.889 667.937 C 563.206 675.627 564.929 699.326 560.247 704.422 L 558.363 703.84 C 557.003 701.881 556.495 700.846 556.143 698.507 C 554.799 688.977 549.238 681.075 545.128 672.565 C 540.312 662.594 537.985 651.898 533.892 641.598 C 527.578 625.707 523.114 609.399 518.922 592.847 C 515.687 580.079 511.573 567.132 511.891 553.79 C 512.291 536.985 517.174 520.33 516.461 503.399 C 516.203 491.121 513.846 478.287 510.599 466.395 C 503.14 439.08 515.169 412.503 516.961 384.999 C 518.135 366.979 520.814 348.586 521.648 330.466 C 522.212 318.207 521.269 305.71 522.796 293.504 C 524.259 283.563 530.39 273.185 531.641 263.052 C 533.828 249.2 526.261 226.813 532.081 214.175 C 540.799 195.244 520.654 196.314 532.498 180.442 C 535.205 176.815 525.482 156.157 522.895 149.982 z"/>
<path transform="translate(0,0)" fill="rgb(255,255,255)" d="M 691.243 348.455 C 707.986 348.809 710.607 366.271 722.776 373.328 C 745.196 386.33 784.74 395.697 771.34 431.324 C 768.047 440.079 749.043 444.751 740.609 446.984 C 718.474 455.005 687.956 463.753 670.334 443.636 C 667.809 425.369 673.362 419.374 680.438 402.73 C 684.209 393.862 687.393 383.78 689.925 374.45 C 692.299 365.706 688.623 357.365 691.243 348.455 z"/>
<path transform="translate(0,0)" fill="rgb(255,255,255)" d="M 712.337 396.866 L 712.876 394.848 C 713.704 394.535 772.104 408.542 747.401 431.045 C 739.969 432.483 736.469 426.659 729.685 423.611 C 720.837 420.564 723.098 436.781 712.622 439.607 C 680.763 448.2 706.69 406.753 712.337 396.866 z"/>
<path transform="translate(0,0)" fill="rgb(255,255,255)" d="M 712.337 396.866 L 712.876 394.848 C 713.704 394.535 772.104 408.542 747.401 431.045 L 742.849 428.606 C 735.484 409.7 717.886 415.517 711.723 410.704 C 709.74 406.428 711.373 401.566 712.337 396.866 z"/>
<path transform="translate(0,0)" fill="rgb(255,255,255)" d="M 793.719 472.182 C 830.492 469.514 827.246 515.054 838.4 538.483 C 841.106 544.165 855.781 560.88 855.301 564.083 C 845.251 568.549 824.298 556.25 810.486 553.389 C 792.036 550.443 772.92 553.07 756.152 544.148 C 731.909 531.249 726.127 515.437 749.192 497.353 C 763.893 485.828 775.617 477.662 793.719 472.182 z"/>
<path transform="translate(0,0)" fill="rgb(255,255,255)" d="M 764.212 526.505 C 758.186 524.742 752.629 523.366 752.972 515.987 C 758.617 507.926 772.139 512.94 780.269 509.795 L 780.993 508.58 C 779.696 505.105 776.713 501.646 778.736 498.36 C 785.978 486.602 800.92 491.744 802.474 504.417 C 803.167 510.072 805.636 527.224 804.294 531.743 L 802.143 532.528 C 795.605 530.602 772.091 527.621 764.212 526.505 z"/>
<path transform="translate(0,0)" fill="rgb(255,255,255)" d="M 764.212 526.505 L 762.657 521.892 C 767.728 513.199 789.678 521.334 796.434 525.502 C 798.933 527.043 800.369 529.825 801.931 532.2 L 802.143 532.528 C 795.605 530.602 772.091 527.621 764.212 526.505 z"/>
<path transform="translate(0,0)" fill="rgb(255,255,255)" d="M 809.73 394.241 C 829.668 392.169 867.423 406.316 889.245 408.902 C 904.641 410.727 916.582 409.848 931.912 410.162 C 914.451 426.217 901.724 423.481 883.98 443.634 C 882.419 445.601 880.809 447.529 879.152 449.417 C 860.491 470.443 816.896 478.385 800.119 451.553 C 791.526 437.81 787.083 427.203 786.243 410.958 C 786.779 409.839 787.355 408.738 787.968 407.659 C 793.068 398.731 800.528 396.756 809.73 394.241 z"/>
<path transform="translate(0,0)" fill="rgb(255,255,255)" d="M 807.043 416.604 C 819.467 406.4 854.284 421.17 869.495 423.892 C 861.632 431.055 857.356 438.906 849.981 446.246 C 844.169 443.413 840.931 447.024 832.24 444.47 C 829.659 446.332 826.803 446.567 824.03 445.237 C 822.549 441.419 822.911 442.683 824.52 438.035 C 827.323 436.264 826.666 437.217 827.507 434.573 C 822.668 428.257 803.495 430.851 807.043 416.604 z"/>
<path transform="translate(0,0)" fill="rgb(255,255,255)" d="M 807.043 416.604 C 815.524 425.657 830.348 413.757 830.201 431.94 C 830.163 436.674 828.992 440.558 832.24 444.47 C 829.659 446.332 826.803 446.567 824.03 445.237 C 822.549 441.419 822.911 442.683 824.52 438.035 C 827.323 436.264 826.666 437.217 827.507 434.573 C 822.668 428.257 803.495 430.851 807.043 416.604 z"/>
<path transform="translate(0,0)" fill="rgb(255,255,255)" d="M 849.981 446.246 C 841.701 454.737 831.317 458.797 819.66 450.441 C 817.63 448.986 817.872 446.468 817.988 444.243 C 819.715 441.081 821.57 440.101 824.52 438.035 C 822.911 442.683 822.549 441.419 824.03 445.237 C 826.803 446.567 829.659 446.332 832.24 444.47 C 840.931 447.024 844.169 443.413 849.981 446.246 z"/>
<path transform="translate(0,0)" fill="rgb(255,255,255)" d="M 402.5 578.349 C 421.918 577.725 437.924 585.998 448.938 601.953 C 436.715 638.23 414.946 683.562 372.674 644.308 C 360.856 630.48 350.185 616.612 334.692 606.641 C 328.542 602.682 315.03 597.955 310.793 592.371 L 311.125 590.816 C 317.214 586.91 342.786 590.755 353.554 589.023 C 370.709 586.263 385.546 580.131 402.5 578.349 z"/>
<path transform="translate(0,0)" fill="rgb(255,255,255)" d="M 373.073 604.594 C 382.791 601.143 431.86 585.09 429.466 607.278 C 427.737 609.839 426.922 611.53 423.413 612.108 C 417.35 613.937 411.802 614.253 405.525 614.872 C 414.34 622.657 420.899 626.066 411.628 637.035 C 408.672 638.729 405.077 640.412 402.14 638.42 C 392.479 631.866 383.014 619.67 375.033 611.173 C 373.081 609.897 371.424 608.679 369.559 607.301 L 369.69 605.692 L 373.073 604.594 z"/>
<path transform="translate(0,0)" fill="rgb(255,255,255)" d="M 373.073 604.594 C 382.791 601.143 431.86 585.09 429.466 607.278 C 427.737 609.839 426.922 611.53 423.413 612.108 C 421.435 611.003 409.813 611.306 405.824 611.068 L 406.492 610.684 C 397.494 610.598 378.506 612.301 373.073 604.594 z"/>
<path transform="translate(0,0)" fill="rgb(255,255,255)" d="M 375.033 611.173 C 393.575 609.697 401.626 625.714 411.628 637.035 C 408.672 638.729 405.077 640.412 402.14 638.42 C 392.479 631.866 383.014 619.67 375.033 611.173 z"/>
<path transform="translate(0,0)" fill="rgb(255,255,255)" d="M 747.034 173.353 C 768.06 172.777 805.384 188.043 830.192 187.013 C 835.8 186.781 854.766 184.718 858.171 187.472 C 856.464 194.46 831.906 203.013 824.572 209.025 C 816.136 215.94 815.929 215.843 808.572 224.979 C 799.976 237.793 792.742 242.54 777.761 246.455 C 766.592 249.374 754.546 251.163 744.145 244.662 C 728.838 235.095 722.116 211.164 717.992 194.87 C 722.212 178.95 731.342 174.723 747.034 173.353 z"/>
<path transform="translate(0,0)" fill="rgb(255,255,255)" d="M 744.872 192.287 C 756.124 191.56 787.783 201.147 799.843 204.39 C 790.875 213.084 782.773 225.294 772.366 231.55 C 765.67 234.507 755.906 237.13 750.451 230.311 C 741.522 219.152 762.786 217.869 763.528 210.679 C 757.175 207.088 741.703 212.774 738.539 202.538 C 736.568 196.162 739.603 194.195 744.872 192.287 z"/>
<path transform="translate(0,0)" fill="rgb(255,255,255)" d="M 832.064 226.9 C 852.405 230.139 886.586 253.769 907.906 259.842 C 914.993 261.861 937.179 264.055 937.684 271.057 C 932.606 274.975 905.276 278.657 891.443 285.837 C 873.849 297.088 858.186 306.336 836.644 304.195 C 824.457 302.984 815.183 301.029 804.919 293.844 C 800.791 282.866 798.068 260.338 802.844 249.356 C 808.637 236.035 819.869 231.906 832.064 226.9 z"/>
<path transform="translate(0,0)" fill="rgb(255,255,255)" d="M 823.375 247.21 C 841.738 245.948 861.536 260.983 877.284 270.781 C 869.84 273.978 857.895 281.581 850.213 285.958 C 844.18 288.891 840.379 289.855 833.951 291.675 C 828.43 288.673 820.748 285.873 822.032 278.754 C 825.778 273.811 834.388 270.574 840.219 267.774 C 832.812 266.061 819.452 262.682 818.997 253.461 C 819.904 249.852 820.517 249.509 823.375 247.21 z"/>
<path transform="translate(0,0)" fill="rgb(255,255,255)" d="M 745.744 256.164 C 783.437 254.305 777.845 292.583 790.248 316.973 C 794.837 325.996 804.068 334.537 806.741 344.434 C 806.94 345.173 805.695 346.281 805.17 346.921 C 798.997 348.631 775.471 337.508 764.963 335.169 C 745.888 331.958 727.909 337.502 708.73 325.887 C 701.475 321.494 693.904 316.25 691.583 307.481 C 690.291 302.491 691.079 297.189 693.767 292.79 C 700.284 281.935 731.43 259.555 745.744 256.164 z"/>
<path transform="translate(0,0)" fill="rgb(255,255,255)" d="M 743.644 273.802 C 757.332 276.73 759.249 303.823 763.217 317.102 C 750.615 316.996 737.702 316.517 725.249 314.514 C 719.541 313.217 707.402 311.18 707.021 304.199 C 706.265 290.352 725.036 296.391 732.743 294.987 C 738.763 284.68 724.679 282.046 743.644 273.802 z"/>
<path transform="translate(0,0)" fill="rgb(255,255,255)" d="M 474.06 305.83 C 476.442 305.866 476.713 305.93 478.659 307.297 C 479.248 314.193 471.647 319.169 467.916 325.566 C 459.416 340.138 462.71 358.772 453.02 372.457 C 446.129 382.189 434.582 390.663 422.695 392.897 C 408.547 395.555 392.714 382.448 381.487 374.349 C 374.937 370.062 364.032 363.506 360.693 356.589 C 344.358 323.226 411.574 323.55 430.319 319.522 C 448.225 315.675 457.373 315.389 474.06 305.83 z"/>
<path transform="translate(0,0)" fill="rgb(255,255,255)" d="M 378.718 352.494 C 387.007 339.947 427.936 339.158 442.917 338.333 C 441.224 350.887 440.35 355.139 435.14 366.598 C 430.906 373.824 423.324 382.097 414.413 376.168 C 408.714 372.376 408.479 366.488 407.206 360.234 C 392.264 361.224 389.75 362.743 378.718 352.494 z"/>
<path transform="translate(0,0)" fill="rgb(255,255,255)" d="M 378.718 352.494 C 392.953 352.807 404.043 348.546 415.45 360.573 L 419.459 364.792 C 422.415 365.201 432.796 366.817 435.14 366.598 C 430.906 373.824 423.324 382.097 414.413 376.168 C 408.714 372.376 408.479 366.488 407.206 360.234 C 392.264 361.224 389.75 362.743 378.718 352.494 z"/>
<path transform="translate(0,0)" fill="rgb(255,255,255)" d="M 480.902 209.449 C 490.554 209.231 517.322 209.863 518.588 221.142 C 521.022 242.806 522.748 277.35 495.39 283.256 C 473.239 288.038 460.49 277.124 444.014 267.114 C 433.023 261.056 421.266 255.57 409.706 250.702 C 404.536 248.525 388.058 249.102 386.584 243.378 C 390.646 238.361 408.875 235.747 415.391 234.383 C 440.174 229.195 455.234 210.904 480.902 209.449 z"/>
<path transform="translate(0,0)" fill="rgb(255,255,255)" d="M 484.821 222.114 C 490.149 221.804 496.683 222.33 500.855 226.042 C 505.013 236.063 491.232 239.907 484.356 242.417 C 491.882 247.199 495.165 249.436 501.78 255.373 C 495.088 267.758 493.152 267.157 480.321 263.894 C 465.784 253.74 459.963 248.73 443.419 242.846 C 459 235.634 467.729 226.485 484.821 222.114 z"/>
<path transform="translate(0,0)" fill="rgb(255,255,255)" d="M 339.94 425.252 C 357.48 423.328 372.082 424.995 384.871 438.289 C 385.608 452.998 388.017 474.907 379.922 487.574 C 362.649 514.602 334.853 496.392 315.517 484.841 C 302.689 477.76 290.052 470.227 276.21 465.251 C 270.464 463.186 254.418 463.537 252.166 458.769 C 254.602 454.443 268.878 452.142 273.686 451.568 C 299.004 448.546 314.844 431.28 339.94 425.252 z"/>
<path transform="translate(0,0)" fill="rgb(255,255,255)" d="M 316.893 455.88 C 327.167 449.815 345.842 437.32 358.271 438.606 C 362.791 439.074 370.129 443.974 368.727 449.991 C 365.85 453.508 356.314 456.207 351.561 457.85 C 354.528 460.05 358.803 462.959 361.13 465.663 C 365.13 469.765 368.375 473.636 365.244 479.404 C 363.692 480.439 362.185 481.501 360.525 482.355 C 343.975 481.586 338.045 471.245 324.283 463.371 C 319.012 460.356 315.757 460.966 312.449 458.928 C 313.192 457.212 314.827 456.908 316.893 455.88 z"/>
<path transform="translate(0,0)" fill="rgb(255,255,255)" d="M 316.893 455.88 L 316.858 456.754 L 318.244 458.199 C 328.469 457.014 329.728 455.549 338.995 462.513 C 346.828 463.97 350.047 470.345 358.575 468.579 C 359.517 467.576 360.341 466.793 361.13 465.663 C 365.13 469.765 368.375 473.636 365.244 479.404 C 363.692 480.439 362.185 481.501 360.525 482.355 C 343.975 481.586 338.045 471.245 324.283 463.371 C 319.012 460.356 315.757 460.966 312.449 458.928 C 313.192 457.212 314.827 456.908 316.893 455.88 z"/>
<path transform="translate(0,0)" fill="rgb(255,255,255)" d="M 338.995 462.513 C 346.828 463.97 350.047 470.345 358.575 468.579 C 359.517 467.576 360.341 466.793 361.13 465.663 C 365.13 469.765 368.375 473.636 365.244 479.404 C 363.692 480.439 362.185 481.501 360.525 482.355 L 358.374 481.03 C 355.6 474.992 344.787 467.978 338.995 462.513 z"/>
<path transform="translate(0,0)" fill="rgb(255,255,255)" d="M 277.32 488.276 C 283.964 487.524 290.383 488.443 296.901 489.546 C 314.739 507.713 351.416 544.513 308.054 558.188 C 301.454 560.269 261.27 555.771 249.898 555.696 C 239.497 555.774 203.188 560.603 198.612 558.325 C 199.717 552.703 219.607 540.211 224.646 532.577 C 241.021 507.77 244.189 493.026 277.32 488.276 z"/>
<path transform="translate(0,0)" fill="rgb(255,255,255)" d="M 257.15 520.877 C 261.2 512.705 265.98 503.877 275.208 501.466 C 289.818 497.65 299.932 506.328 285.237 518.669 C 292.114 520.558 299.191 522.154 304.966 526.512 C 307.517 528.06 309.057 529.921 309.372 532.842 C 302.397 542.953 262.363 534.58 248.901 534.961 L 257.15 520.877 z"/>
<path transform="translate(0,0)" fill="rgb(255,255,255)" d="M 248.901 534.961 L 257.15 520.877 C 260.669 526.246 298.879 534.628 304.966 526.512 C 307.517 528.06 309.057 529.921 309.372 532.842 C 302.397 542.953 262.363 534.58 248.901 534.961 z"/>
<path transform="translate(0,0)" fill="rgb(255,255,255)" d="M 496.691 56.2484 C 501.98 56.0657 505.577 56.6058 510.767 57.2533 C 515.475 60.9888 522.473 69.1015 527.278 71.501 C 550.978 83.3373 564.269 81.7604 570.494 111.209 C 564.702 129.891 554.062 131.993 536.892 137.164 C 517.547 141.591 499.215 147.177 479.804 141.367 C 472.245 134.195 469.154 129.804 472.772 119.006 C 476.914 106.645 482.735 94.8856 487.199 82.5935 C 489.539 76.152 490.65 62.1418 493.544 57.0563 L 496.691 56.2484 z"/>
<path transform="translate(0,0)" fill="rgb(255,255,255)" d="M 512.996 86.3514 C 522.172 88.7305 571.248 110.15 543.012 122.242 C 538.286 124.266 530.102 119.676 526.185 116.727 C 522.05 118.346 521.031 123.988 517.593 126.548 C 514.564 128.85 499.779 133.365 497.705 128.422 C 491.895 114.577 509.573 100.096 512.996 86.3514 z"/>
<path transform="translate(0,0)" fill="rgb(255,255,255)" d="M 288.032 254.511 C 299.411 257.123 300.595 268.807 308.972 275.547 C 322.385 286.852 352.975 291.805 356.817 311.712 C 362.053 338.844 343.767 345.08 323.776 349.788 C 306.359 354.473 271.244 367.08 263.719 341.725 C 260.068 329.422 283.573 294.611 286.66 281.549 C 289.027 271.534 282.64 262.499 288.032 254.511 z"/>
<path transform="translate(0,0)" fill="rgb(255,255,255)" d="M 305.363 298.588 C 320.211 305.067 335.81 310.706 345.466 324.396 C 343.545 327.474 341.078 331.863 338.516 334.222 C 337.835 334.33 337.152 334.429 336.469 334.52 C 326.022 335.887 325.771 331.481 317.076 324.777 C 314.649 326.271 315.45 325.414 314.201 328.279 C 311.954 336.713 308.824 339.342 300.982 342.936 C 281.673 342.401 292.661 325.615 297.841 316.435 C 300.615 310.318 303.1 304.918 305.363 298.588 z"/>
<path transform="translate(0,0)" fill="rgb(255,255,255)" d="M 300.982 342.936 C 281.673 342.401 292.661 325.615 297.841 316.435 C 300.243 327.68 294.106 332.472 298.593 341.55 L 300.982 342.936 z"/>
<path transform="translate(0,0)" fill="rgb(255,255,255)" d="M 326.92 324.493 C 333.629 328.581 333.566 328.651 338.516 334.222 C 337.835 334.33 337.152 334.429 336.469 334.52 C 326.022 335.887 325.771 331.481 317.076 324.777 L 326.92 324.493 z"/>
<path transform="translate(0,0)" fill="rgb(255,255,255)" d="M 314.201 328.279 C 314.336 323.452 312.068 320.726 316.988 318.277 C 320.557 319.001 323.963 322.168 326.92 324.493 L 317.076 324.777 C 314.649 326.271 315.45 325.414 314.201 328.279 z"/>
<path transform="translate(0,0)" fill="rgb(255,255,255)" d="M 343.126 141.885 C 355.099 142.444 366.043 152.538 378.102 154.718 C 402.771 159.18 454.355 157.943 447.42 196.876 C 446.035 204.647 433.026 210.643 426.466 214.131 C 413.03 221.836 398.693 237.603 381.82 232.575 C 372.699 229.857 364.309 221.146 362.254 211.992 C 358.865 196.889 357.374 181.83 352.993 166.786 C 350.402 157.892 340.464 150.32 343.126 141.885 z"/>
<path transform="translate(0,0)" fill="rgb(255,255,255)" d="M 380.677 173.169 C 393.467 173.048 430.796 173.443 430.978 191.083 C 426.454 200.393 418.068 196.38 411.005 193 L 409.397 194.238 C 408.152 197.264 408.802 204.194 408.935 207.782 C 381.113 231.695 384.663 190.103 380.677 173.169 z"/>
<path transform="translate(0,0)" fill="rgb(255,255,255)" d="M 589.93 132.405 C 606.29 130.527 646.424 146.665 665.597 148.482 C 672.848 149.169 692.747 147.994 697.242 150.697 L 697.423 152.337 C 692.605 158.62 672.471 164.562 664.463 169.848 C 657.62 174.364 656.19 175.581 649.825 181.236 C 638.298 191.765 631.095 199.593 614.984 202.338 C 584.904 206.849 575.98 195.7 566.937 169.42 C 558.964 146.249 563.537 135.096 589.93 132.405 z"/>
<path transform="translate(0,0)" fill="rgb(255,255,255)" d="M 590.242 150.103 C 602.276 150.834 629.039 159.783 642.661 163.417 C 632.628 175.05 627.621 179.849 614.749 188.054 C 612.9 189.126 608.063 191.042 605.875 191.978 C 583.885 184.214 590.549 178.65 604.999 167.563 C 596.491 167.308 587.372 167.097 580.643 161.107 C 578.229 154.504 585.135 152.469 590.242 150.103 z"/>
<path transform="translate(0,0)" fill="rgb(255,255,255)" d="M 54.9923 776.348 C 88.5016 785.387 132.483 791.824 166.783 796.663 C 237.485 806.639 311.345 819.218 382.791 815.818 C 397.001 815.485 409.888 814.137 423.748 810.971 C 430.485 809.432 460.957 798.82 464.751 802.529 C 463.429 804.912 460.953 805.522 458.291 806.672 C 450.249 810.483 451.485 809.418 453.449 816.359 C 451.941 817.126 437.207 818.291 433.356 818.77 C 370.067 826.163 301.306 828.267 237.823 822.279 C 190.974 817.86 144.868 807.637 97.1831 807.231 C 85.6702 807.133 67.1862 803.088 54.9651 801.556 C 54.7137 793.343 54.9263 784.606 54.9923 776.348 z"/>
<path transform="translate(0,0)" fill="rgb(255,255,255)" d="M 210.351 280.346 C 212.877 280.265 215.405 280.256 217.932 280.319 C 232.593 280.803 243.001 285.309 252.947 295.855 C 250.713 332.322 219.439 376.047 182.748 340.15 C 170.913 327.223 159.515 316.22 144.177 307.389 C 138.646 304.205 125.076 300.284 124.341 294.311 C 128.324 290.196 147.386 291.841 154.442 291.614 C 174.892 290.956 190.665 282.395 210.351 280.346 z"/>
<path transform="translate(0,0)" fill="rgb(255,255,255)" d="M 224.548 295.415 C 231.664 294.848 238.29 297.485 238.817 305.331 C 237.647 308.62 235.067 309.778 232.085 311.683 C 227.452 311.915 221.018 313.028 216.294 313.7 C 221.755 318.752 229.955 325.361 224.489 333.566 C 219.754 337.114 213.935 336.684 209.31 333.182 C 201.861 326.463 186.198 310.398 178.552 306.3 C 195.141 300.767 207.17 296.7 224.548 295.415 z"/>
<path transform="translate(0,0)" fill="rgb(255,255,255)" d="M 222.314 393.192 C 221.479 389.776 220.792 387.992 221.557 384.554 C 224.017 382.036 226.092 383.413 229.539 383.454 C 234.659 383.513 238.137 377.311 243.314 379.785 C 244.915 382.793 244.702 385.633 244.805 389.05 L 245.999 391.828 L 248.683 392.58 C 254.427 385.836 258.627 385.108 266.856 382.562 C 268.947 386.961 274.72 395.971 272.178 399.921 C 271.431 404.119 270.669 405.669 273.422 409.173 C 273.833 411.42 274.707 413.148 273.044 414.945 C 265.335 423.273 256.203 429.762 247.481 418.874 C 247.669 416.299 247.995 415.509 246.708 413.449 L 245.394 413.838 C 243.977 417.05 243.466 419.228 244.325 422.654 C 238.124 431.78 223.897 430.542 218.022 422.823 C 217.829 418.8 218.244 419.465 220.381 415.386 C 219.108 413.803 218.057 413.506 216.184 412.587 C 211.92 413.237 207.138 412.258 202.813 411.633 C 203.401 404.798 202.613 399.84 207.395 395.761 C 211.368 394.716 215.266 395.812 219.319 396.586 C 221.768 395.263 220.943 395.969 222.314 393.192 z"/>
<path transform="translate(0,0)" fill="rgb(255,255,255)" d="M 248.683 392.58 C 254.427 385.836 258.627 385.108 266.856 382.562 C 268.947 386.961 274.72 395.971 272.178 399.921 C 259.352 407.926 256.844 402.788 248.683 392.58 z"/>
<path transform="translate(0,0)" fill="rgb(255,255,255)" d="M 220.381 415.386 C 228.364 410.955 241.274 414.247 244.325 422.654 C 238.124 431.78 223.897 430.542 218.022 422.823 C 217.829 418.8 218.244 419.465 220.381 415.386 z"/>
<path transform="translate(0,0)" fill="rgb(255,255,255)" d="M 202.813 411.633 C 203.401 404.798 202.613 399.84 207.395 395.761 C 211.368 394.716 215.266 395.812 219.319 396.586 C 227.351 400.862 223.859 410.352 216.184 412.587 C 211.92 413.237 207.138 412.258 202.813 411.633 z"/>
<path transform="translate(0,0)" fill="rgb(255,255,255)" d="M 247.481 418.874 C 254.756 407.852 261.394 407.672 273.422 409.173 C 273.833 411.42 274.707 413.148 273.044 414.945 C 265.335 423.273 256.203 429.762 247.481 418.874 z"/>
<path transform="translate(0,0)" fill="rgb(255,255,255)" d="M 222.314 393.192 C 221.479 389.776 220.792 387.992 221.557 384.554 C 224.017 382.036 226.092 383.413 229.539 383.454 C 234.659 383.513 238.137 377.311 243.314 379.785 C 244.915 382.793 244.702 385.633 244.805 389.05 C 236.974 394.673 231.397 394.776 222.314 393.192 z"/>
<path transform="translate(0,0)" fill="rgb(255,255,255)" d="M 235.958 396.953 C 242.796 396.696 251.362 398.544 251.646 406.786 C 250.286 409.778 248.263 410.372 245.32 411.764 C 238.626 412.149 229.488 411.746 229.538 402.997 C 231.227 399.52 232.648 398.954 235.958 396.953 z"/>
<path transform="translate(0,0)" fill="rgb(255,255,255)" d="M 853.338 339.123 C 851.955 336.353 850.42 332.644 851.379 329.6 C 855.162 326.919 859.226 328.591 863.813 327.213 C 868.918 325.68 867.621 323.856 872.682 324.034 C 875.401 326.316 875.9 327.848 877.412 331.046 C 878.687 333.452 878.695 333.816 881.012 334.956 C 886.392 332.014 891.111 329.485 896.671 326.879 C 901.955 335.021 902.297 336.049 909.159 342.65 C 903.977 345.572 899.969 348.13 893.901 348.866 L 890.895 350.719 L 891.285 351.753 C 894.204 352.313 897.127 352.851 900.054 353.366 C 904.666 354.576 903.869 353.663 906.681 356.78 C 907.471 367.098 891.148 372.372 881.214 367.749 L 876.038 368.56 C 874.951 369.61 873.84 370.636 872.706 371.635 C 865.618 377.779 857.067 370.293 844.551 369.305 C 847.312 366.642 849.976 363.695 852.597 360.879 L 852.042 357.214 C 852.763 350.985 853.628 349.76 852.451 343.455 L 853.338 339.123 z"/>
<path transform="translate(0,0)" fill="rgb(255,255,255)" d="M 881.012 334.956 C 886.392 332.014 891.111 329.485 896.671 326.879 C 901.955 335.021 902.297 336.049 909.159 342.65 C 903.977 345.572 899.969 348.13 893.901 348.866 C 888.922 346.88 881.844 340.502 881.012 334.956 z"/>
<path transform="translate(0,0)" fill="rgb(255,255,255)" d="M 900.054 353.366 C 904.666 354.576 903.869 353.663 906.681 356.78 C 907.471 367.098 891.148 372.372 881.214 367.749 C 879.06 355.514 890.905 354.111 900.054 353.366 z"/>
<path transform="translate(0,0)" fill="rgb(255,255,255)" d="M 853.338 339.123 C 851.955 336.353 850.42 332.644 851.379 329.6 C 855.162 326.919 859.226 328.591 863.813 327.213 C 868.918 325.68 867.621 323.856 872.682 324.034 C 875.401 326.316 875.9 327.848 877.412 331.046 C 875.247 335.162 874.467 335.733 870.813 338.701 L 856.385 339.201 L 853.338 339.123 z"/>
<path transform="translate(0,0)" fill="rgb(255,255,255)" d="M 852.597 360.879 C 860.004 358.385 872.294 361.584 876.038 368.56 C 874.951 369.61 873.84 370.636 872.706 371.635 C 865.618 377.779 857.067 370.293 844.551 369.305 C 847.312 366.642 849.976 363.695 852.597 360.879 z"/>
<path transform="translate(0,0)" fill="rgb(255,255,255)" d="M 871.898 342.001 C 878.429 343.397 882.504 344.217 882.728 351.858 C 879.345 359.001 863.077 360.867 859.773 351.326 C 860.46 346.738 861.193 345.459 864.878 342.238 C 866.76 342.808 869.822 342.235 871.898 342.001 z"/>
<path transform="translate(0,0)" fill="rgb(255,255,255)" d="M 602.014 456.613 C 613.492 452.679 620.754 457.609 629.869 464.717 C 642.274 475.257 648.477 483.186 663.121 489.951 C 656.268 490.952 646.72 492.083 640.18 493.599 C 628.646 496.199 618.164 499.101 606.205 496.922 C 595.817 495.03 580.235 482.157 582.87 470.677 C 585.201 466.991 586.441 466.064 589.742 463.171 C 591.889 460.914 598.941 457.926 602.014 456.613 z"/>
<path transform="translate(0,0)" fill="rgb(255,255,255)" d="M 602.014 456.613 C 613.492 452.679 620.754 457.609 629.869 464.717 C 642.274 475.257 648.477 483.186 663.121 489.951 C 656.268 490.952 646.72 492.083 640.18 493.599 L 644.308 489.772 C 632.437 485.013 617.089 471.159 607.727 461.886 C 607.305 461.468 608.162 459.022 608.405 458.07 C 605.16 458.381 604.792 458.313 602.014 456.613 z"/>
<path transform="translate(0,0)" fill="rgb(255,255,255)" d="M 602.014 456.613 C 613.492 452.679 620.754 457.609 629.869 464.717 C 624.086 469.226 620.411 457.964 608.405 458.07 C 605.16 458.381 604.792 458.313 602.014 456.613 z"/>
<path transform="translate(0,0)" fill="rgb(255,255,255)" d="M 589.742 463.171 C 590.898 466.814 591.336 467.886 593.162 471.238 L 592.832 471.54 L 593.607 472.978 C 588.317 470.048 588.82 473.727 582.87 470.677 C 585.201 466.991 586.441 466.064 589.742 463.171 z"/>
<path transform="translate(0,0)" fill="rgb(255,255,255)" d="M 297.618 188.997 C 300.294 185.929 299.218 186.231 302.605 185.633 C 305.602 187.018 306.941 189.252 308.955 191.881 L 308.682 195.131 C 309.854 196.19 311.157 197.517 312.491 198.253 C 325.847 185.329 331.445 189.644 338.581 205.056 C 337.793 208.015 338.462 207.032 336.148 208.834 C 336.161 210.81 336.094 213.429 336.235 215.339 L 338.301 217.874 C 336.997 223.006 324.64 233.688 318.517 232.143 C 317 231.751 315.498 231.307 314.012 230.811 C 312.657 230.439 312.926 230.454 311.81 229.481 L 311.477 229.187 C 310.478 231.293 310.452 230.328 310.893 232.124 L 308.831 232.155 L 308.747 229.49 C 308.365 230.221 308.057 230.516 307.419 231.008 C 300.881 237.508 291.509 236.678 283.69 231.337 C 282.073 230.233 282.467 228.517 282.552 226.681 C 284.413 222.962 285.129 222.566 288.465 220.056 L 288.459 216.946 L 285.815 216.782 L 288.061 211.547 C 287.032 207.87 286.945 207.124 284.104 204.483 C 285.685 203.789 286.481 202.997 287.86 201.935 C 285.978 199.355 283.391 195.152 283.618 191.883 C 287.313 186.7 292.998 191.298 297.618 188.997 z"/>
<path transform="translate(0,0)" fill="rgb(255,255,255)" d="M 288.061 211.547 L 289.879 210.686 L 290.406 211.004 C 296.631 217.75 301.223 219.42 310.442 217.074 C 311.721 218.205 313.466 219.422 314.078 220.85 C 312.77 225.129 313.168 226.339 314.012 230.811 C 312.657 230.439 312.926 230.454 311.81 229.481 L 311.477 229.187 C 310.478 231.293 310.452 230.328 310.893 232.124 L 308.831 232.155 L 308.747 229.49 C 308.365 230.221 308.057 230.516 307.419 231.008 C 300.881 237.508 291.509 236.678 283.69 231.337 C 282.073 230.233 282.467 228.517 282.552 226.681 C 284.413 222.962 285.129 222.566 288.465 220.056 L 288.459 216.946 L 285.815 216.782 L 288.061 211.547 z"/>
<path transform="translate(0,0)" fill="rgb(255,255,255)" d="M 288.061 211.547 L 289.879 210.686 L 290.406 211.004 C 296.631 217.75 301.223 219.42 310.442 217.074 C 311.721 218.205 313.466 219.422 314.078 220.85 C 312.77 225.129 313.168 226.339 314.012 230.811 C 312.657 230.439 312.926 230.454 311.81 229.481 L 311.477 229.187 C 310.478 231.293 310.452 230.328 310.893 232.124 L 308.831 232.155 L 308.747 229.49 C 308.365 230.221 308.057 230.516 307.419 231.008 C 305.432 221.901 296.162 220.777 288.465 220.056 L 288.459 216.946 L 285.815 216.782 L 288.061 211.547 z"/>
<path transform="translate(0,0)" fill="rgb(255,255,255)" d="M 312.491 198.253 C 325.847 185.329 331.445 189.644 338.581 205.056 C 337.793 208.015 338.462 207.032 336.148 208.834 C 322.363 211.005 320.29 210.15 312.491 198.253 z"/>
<path transform="translate(0,0)" fill="rgb(255,255,255)" d="M 314.078 220.85 C 323.792 218.3 318.284 211.772 336.235 215.339 L 338.301 217.874 C 336.997 223.006 324.64 233.688 318.517 232.143 C 317 231.751 315.498 231.307 314.012 230.811 C 313.168 226.339 312.77 225.129 314.078 220.85 z"/>
<path transform="translate(0,0)" fill="rgb(255,255,255)" d="M 297.618 188.997 C 300.294 185.929 299.218 186.231 302.605 185.633 C 305.602 187.018 306.941 189.252 308.955 191.881 L 308.682 195.131 C 301.246 200.517 297.222 202.241 287.86 201.935 C 285.978 199.355 283.391 195.152 283.618 191.883 C 287.313 186.7 292.998 191.298 297.618 188.997 z"/>
<path transform="translate(0,0)" fill="rgb(255,255,255)" d="M 297.618 188.997 C 300.294 185.929 299.218 186.231 302.605 185.633 C 305.602 187.018 306.941 189.252 308.955 191.881 C 306.64 193.07 306.047 193.09 303.454 193.604 C 299.385 192.149 300.61 192.647 297.618 188.997 z"/>
<path transform="translate(0,0)" fill="rgb(255,255,255)" d="M 290.406 211.004 C 294.597 203.386 307.544 202.397 312.713 209.366 C 313.493 213.523 313.329 213.611 310.442 217.074 C 301.223 219.42 296.631 217.75 290.406 211.004 z"/>
<path transform="translate(0,0)" fill="rgb(255,255,255)" d="M 744.605 108.362 C 750.304 111.146 747.138 116.151 749.133 120.17 C 758.037 138.102 764.079 132.488 760.566 153.755 C 751.03 162.904 741.14 168.822 727.737 165.706 C 724.885 163.776 722.052 161.819 719.238 159.835 C 698.494 145.136 714.717 138.72 727.45 128.325 C 733.98 122.994 739.704 115.231 744.605 108.362 z"/>
<path transform="translate(0,0)" fill="rgb(255,255,255)" d="M 489.395 392.619 C 495.2 391.783 500.781 390.983 506.551 389.897 L 495.266 401.005 C 487.741 411.79 479.329 427.739 465.396 429.653 C 456.317 430.9 438.714 430.398 434.4 420.459 C 434.493 417.445 434.737 417.096 436.388 414.547 C 435.499 401.461 438.498 395.272 453.027 394.572 C 463.507 394.068 473.305 393.989 483.824 393.062 L 489.395 392.619 z"/>
<path transform="translate(0,0)" fill="rgb(255,255,255)" d="M 436.388 414.547 C 435.499 401.461 438.498 395.272 453.027 394.572 C 463.507 394.068 473.305 393.989 483.824 393.062 C 486.491 395.617 490.308 398.809 491.735 402.05 L 491.159 403.111 C 485.92 402.429 487.627 402.446 483.008 403.739 C 467.744 408.013 449.411 403.928 436.388 414.547 z"/>
<path transform="translate(0,0)" fill="rgb(255,255,255)" d="M 489.395 392.619 C 495.2 391.783 500.781 390.983 506.551 389.897 L 495.266 401.005 C 492.716 397.817 491.514 396.108 489.395 392.619 z"/>
<path transform="translate(0,0)" fill="rgb(255,255,255)" d="M 394.641 256.417 C 396.139 256.74 396.394 257.264 397.411 258.41 C 397.909 261.034 399.203 268.384 400.192 270.31 C 406.791 283.153 419.832 295.42 402.476 306.83 C 394.093 312.341 388.293 315.732 377.651 313.891 L 371.43 309.754 C 349.307 294.863 358.726 290.723 375.656 277.527 C 383.072 271.746 389.109 263.927 394.641 256.417 z"/>
<path transform="translate(0,0)" fill="rgb(255,255,255)" d="M 450.399 164.173 C 468.751 167.269 481.931 164.589 499.866 166.028 C 506.052 166.978 512.598 170.61 515.877 175.934 C 521.964 185.817 521.191 188.89 511.408 194.394 C 504.39 197.382 491.824 203.51 484.458 201.213 C 481.355 198.591 450.758 165.344 450.399 164.173 z"/>
<path transform="translate(0,0)" fill="rgb(255,255,255)" d="M 640.752 216.822 L 654.54 229.416 C 650.878 232.081 646.468 235.601 642.387 237.329 L 638.371 240.442 C 641.096 240.483 643.138 240.302 645.672 241.29 C 648.795 242.521 651.535 243.204 653.401 245.951 L 653.543 248.013 C 651.56 250.088 638.767 259.191 635.944 259.515 C 631.814 258.851 628.598 255.658 626.777 252.029 L 624.72 251.225 C 623.464 253.893 623.298 254.305 622.966 257.229 C 615.939 266.132 605.517 264.692 596.697 257.634 C 595.271 256.492 595.773 254.972 595.998 253.265 C 597.955 250.192 599.419 249.516 602.491 247.577 C 604.555 246.279 604.738 246.215 606.241 244.338 L 605.75 243.029 L 602.345 242.789 C 600.921 243.803 599.976 244.229 598.297 244.696 L 600.039 239.755 C 602.493 239.75 604.5 239.431 606.516 240.661 L 607.205 236.948 C 612.71 230.991 624.143 232.564 630.153 236.948 C 632.568 234.248 629.479 230.291 628.109 227.476 C 630.353 220.986 634.569 219.919 640.752 216.822 z"/>
<path transform="translate(0,0)" fill="rgb(255,255,255)" d="M 602.491 247.577 C 606.2 248.063 609.557 248.365 613.121 249.534 C 616.129 251.518 621.244 254.379 622.966 257.229 C 615.939 266.132 605.517 264.692 596.697 257.634 C 595.271 256.492 595.773 254.972 595.998 253.265 C 597.955 250.192 599.419 249.516 602.491 247.577 z"/>
<path transform="translate(0,0)" fill="rgb(255,255,255)" d="M 640.752 216.822 L 654.54 229.416 C 650.878 232.081 646.468 235.601 642.387 237.329 C 635.173 236.199 633.095 232.77 628.109 227.476 C 630.353 220.986 634.569 219.919 640.752 216.822 z"/>
<path transform="translate(0,0)" fill="rgb(255,255,255)" d="M 645.672 241.29 C 648.795 242.521 651.535 243.204 653.401 245.951 L 653.543 248.013 C 651.56 250.088 638.767 259.191 635.944 259.515 C 631.814 258.851 628.598 255.658 626.777 252.029 C 632.289 244.901 637.105 242.899 645.672 241.29 z"/>
<path transform="translate(0,0)" fill="rgb(255,255,255)" d="M 628.109 227.476 C 633.095 232.77 635.173 236.199 642.387 237.329 L 638.371 240.442 C 641.096 240.483 643.138 240.302 645.672 241.29 C 637.105 242.899 632.289 244.901 626.777 252.029 L 624.72 251.225 C 623.464 253.893 623.298 254.305 622.966 257.229 C 621.244 254.379 616.129 251.518 613.121 249.534 C 615.319 247.799 616.626 247.572 619.26 246.718 C 626.47 245.434 628.085 243.667 630.153 236.948 C 632.568 234.248 629.479 230.291 628.109 227.476 z"/>
<path transform="translate(0,0)" fill="rgb(255,255,255)" d="M 600.039 239.755 C 602.493 239.75 604.5 239.431 606.516 240.661 C 610.138 246.789 612.514 246.008 619.26 246.718 C 616.626 247.572 615.319 247.799 613.121 249.534 C 609.557 248.365 606.2 248.063 602.491 247.577 C 604.555 246.279 604.738 246.215 606.241 244.338 L 605.75 243.029 L 602.345 242.789 C 600.921 243.803 599.976 244.229 598.297 244.696 L 600.039 239.755 z"/>
<path transform="translate(0,0)" fill="rgb(255,255,255)" d="M 760.373 59.1849 C 766.888 56.6471 771.921 56.7797 778.895 56.6541 C 781.261 59.2128 783.093 60.7468 783.914 64.1247 C 781.83 72.688 769.019 73.1334 761.401 74.2154 C 759.128 72.5131 757.31 71.0679 755.146 69.2183 C 754.826 67.7665 754.364 67.1479 753.633 65.8857 L 750.519 65.4582 C 751.02 63.8998 753.728 59.21 754.666 57.5018 L 760.373 59.1849 z"/>
<path transform="translate(0,0)" fill="rgb(255,255,255)" d="M 754.666 57.5018 L 760.373 59.1849 C 758.211 62.8831 756.804 65.2892 755.146 69.2183 C 754.826 67.7665 754.364 67.1479 753.633 65.8857 L 750.519 65.4582 C 751.02 63.8998 753.728 59.21 754.666 57.5018 z"/>
<path transform="translate(0,0)" fill="rgb(255,255,255)" d="M 371.564 528.998 L 377.376 529.41 C 371.315 532.22 368.076 536.47 370.04 544.429 C 370.994 548.296 376.157 547.208 380.336 550.925 C 369.302 548.101 373.803 551.142 366.179 552.918 C 364.738 550.379 363.515 550.046 360.927 548.658 C 356.099 548.388 351.262 548.26 349.598 543.189 C 350.275 540.606 350.908 540.202 352.86 538.321 L 351.727 534.564 C 354.946 528.109 362.351 531.407 368.216 532.861 L 371.564 528.998 z"/>
<path transform="translate(0,0)" fill="rgb(255,255,255)" d="M 371.564 528.998 L 377.376 529.41 C 371.315 532.22 368.076 536.47 370.04 544.429 C 370.994 548.296 376.157 547.208 380.336 550.925 C 369.302 548.101 373.803 551.142 366.179 552.918 C 364.738 550.379 363.515 550.046 360.927 548.658 L 365.654 547.398 C 367.902 544.816 367.192 545.255 367.284 540.984 C 367.182 538.973 367.899 535.01 368.216 532.861 L 371.564 528.998 z"/>
<path transform="translate(0,0)" fill="rgb(255,255,255)" d="M 852.042 357.214 C 846.802 359.221 836.383 361.468 833.565 355.395 C 835.178 348.966 832.373 343.444 836.664 340.091 C 840.289 339.743 848.548 342.398 852.451 343.455 C 853.628 349.76 852.763 350.985 852.042 357.214 z"/>
<path transform="translate(0,0)" fill="rgb(255,255,255)" d="M 614.811 210.61 L 618.41 211.305 C 623.024 214.55 624.712 218.978 622.376 224.177 C 620.091 226.551 608.847 226.931 604.444 227.418 C 600.243 225.95 596.439 224.509 595.75 219.99 C 600.933 213.567 607.495 221.191 614.811 210.61 z"/>
<path transform="translate(0,0)" fill="rgb(255,255,255)" d="M 408.207 544.028 C 411.997 544.006 417.585 544.204 420.507 546.713 C 421.427 552.391 412.096 554.952 409.064 562.259 C 403.877 561.019 398.97 560.545 396.424 555.301 C 396.428 548.477 402.355 545.963 408.207 544.028 z"/>
<path transform="translate(0,0)" fill="rgb(255,255,255)" d="M 382.12 533.127 C 388.753 532.63 398.1 532.305 398.397 541.172 C 396.967 544.644 395.372 545.432 392.303 547.609 C 385.276 548.552 373.558 547.538 375.324 537.827 C 377.468 534.736 378.639 534.526 382.12 533.127 z"/>
<path transform="translate(0,0)" fill="rgb(255,255,255)" d="M 268.883 203.292 C 275.285 203.315 277.707 203.406 284.104 204.483 C 286.945 207.124 287.032 207.87 288.061 211.547 L 285.815 216.782 C 268.104 227.889 268.054 216.751 268.883 203.292 z"/>
<path transform="translate(0,0)" fill="rgb(255,255,255)" d="M 408.38 520.076 C 416.624 520.798 414.125 524.481 422.258 532.914 L 410.214 538.989 C 402.551 537.674 400.191 532.014 396.51 525.943 C 401.149 523.141 403.345 522.117 408.38 520.076 z"/>
<path transform="translate(0,0)" fill="rgb(255,255,255)" d="M 366.179 552.918 C 373.803 551.142 369.302 548.101 380.336 550.925 L 380.948 551.253 C 386.164 553.996 387.921 553.004 391.165 556.768 C 391.699 559.882 391.935 558.632 390.171 561.439 C 382.145 566.22 372.991 564.353 365.869 558.873 C 364.737 555.639 365.016 556.694 366.179 552.918 z"/>
<path transform="translate(0,0)" fill="rgb(255,255,255)" d="M 598.297 244.696 C 591.417 247.009 584.156 250.184 579.652 242.723 C 578.853 230.852 595.615 225.393 600.039 239.755 L 598.297 244.696 z"/>
<path transform="translate(0,0)" fill="rgb(255,255,255)" d="M 371.564 528.998 C 369.39 526.428 366.443 523.546 365.891 520.356 L 366.88 518.526 C 372.325 517.598 375.491 520.39 379.381 518.896 C 381.324 515.301 381.23 514.071 386.048 514.756 C 390.041 515.324 390.461 515.917 391.731 519.39 C 390.117 527.124 384.118 527.599 377.376 529.41 L 371.564 528.998 z"/>
<path transform="translate(0,0)" fill="rgb(255,255,255)" d="M 727.534 56.8765 C 735.916 56.8749 746.517 56.5905 754.666 57.5018 C 753.728 59.21 751.02 63.8998 750.519 65.4582 L 747.363 67.7236 C 742.287 68.0006 734.996 60.8204 727.534 56.8765 z"/>
</svg>